# xmcd
#
# Track frame offsets: 
#        150
#        12199
#        23813
#        36159
#        45548
#        58444
#        72251
#        82865
#        95079
#        108030
#        118839
#        130790
#        141454
#        154608
#        167705
#        182455
#        195801
#        209762
#        221649
#        233551
#
# Disc length: 3266 seconds
#
# Revision: 1
# Processed by: cddbd v1.5.2PL0 Copyright (c) Steve Scherf et al.
# Submitted via: ExactAudioCopyFreeDBPlugin 1.0
#
DISCID=120cc014
DTITLE=Big Mama Thornton, Sister Rosetta Tharpe - ABC Of The Blues - V
DTITLE=ol. 43 Thornton, Tharpe
DYEAR=2010
DGENRE=Blues
TTITLE0=Big Mama Thornton - Partnership Blues
TTITLE1=Big Mama Thornton - I'm All Fed Up
TTITLE2=Big Mama Thornton - Let Your Tears Fall Baby
TTITLE3=Big Mama Thornton - They Call Me Big Mama
TTITLE4=Big Mama Thornton - Hound Dog
TTITLE5=Big Mama Thornton - Walking Blues
TTITLE6=Big Mama Thornton - I've Searched The Worl Over
TTITLE7=Big Mama Thornton - I Smell A Rat
TTITLE8=Big Mama Thornton - Nightmare
TTITLE9=Big Mama Thornton - I Ain't No Fool Neither
TTITLE10=Sister Rosetta Tharpe - Let That Liar Alone
TTITLE11=Sister Rosetta Tharpe - Sit Down
TTITLE12=Sister Rosetta Tharpe - What's The News
TTITLE13=Sister Rosetta Tharpe - Singin' In My Soul
TTITLE14=Sister Rosetta Tharpe - The Natural Facts
TTITLE15=Sister Rosetta Tharpe - Two Little Fishes And Five Loaves Of 
TTITLE15=Bread
TTITLE16=Sister Rosetta Tharpe - Nobody's Fault But Mine
TTITLE17=Sister Rosetta Tharpe - Nobody Know Nobody Care
TTITLE18=Sister Rosetta Tharpe - All Over This World
TTITLE19=Sister Rosetta Tharpe - Four Or Five Times
EXTD=
EXTT0=
EXTT1=
EXTT2=
EXTT3=
EXTT4=
EXTT5=
EXTT6=
EXTT7=
EXTT8=
EXTT9=
EXTT10=
EXTT11=
EXTT12=
EXTT13=
EXTT14=
EXTT15=
EXTT16=
EXTT17=
EXTT18=
EXTT19=
PLAYORDER=
